<?xml version="1.0" encoding="utf-8"?>
<!-- Generator: Adobe Illustrator 19.0.0, SVG Export Plug-In . SVG Version: 6.00 Build 0)  -->
<svg version="1.1" id="Layer_1" xmlns="http://www.w3.org/2000/svg" xmlns:xlink="http://www.w3.org/1999/xlink" x="0px" y="0px"
	 viewBox="-287 289 24 24" style="enable-background:new -287 289 24 24;" xml:space="preserve">
<style type="text/css">
	.st0{fill:#A7A7A7;}
	.st1{display:none;}
	.st2{display:inline;}
</style>
<path class="st0" d="M-273,291h-8c-1.1,0-2,0.9-2,2l0,16c0,1.1,0.9,2,2,2h12c1.1,0,2-0.9,2-2v-12L-273,291z M-274.5,307.2h-1.1v-1.1
	h1.1V307.2z M-274.5,305.5h-1.1c0-1.8,1.6-1.6,1.6-2.7c0-0.6-0.5-1.1-1.1-1.1s-1.1,0.5-1.1,1.1h-1.1c0-1.2,1-2.2,2.2-2.2
	s2.2,1,2.2,2.2C-272.8,304.2-274.5,304.3-274.5,305.5z M-274,298v-5.5l5.5,5.5H-274z"/>
<g class="st1">
	<rect x="-275.5" y="306.1" class="st2" width="1.1" height="1.1"/>
	<path class="st2" d="M-275,300.7c-1.2,0-2.2,1-2.2,2.2h1.1c0-0.6,0.5-1.1,1.1-1.1s1.1,0.5,1.1,1.1c0,1.1-1.6,0.9-1.6,2.7h1.1
		c0-1.2,1.6-1.3,1.6-2.7C-272.8,301.7-273.8,300.7-275,300.7z"/>
</g>
</svg>
